<?xml version="1.0" encoding="UTF-8" standalone="no"?><!DOCTYPE svg PUBLIC "-//W3C//DTD SVG 1.1//EN" "http://www.w3.org/Graphics/SVG/1.1/DTD/svg11.dtd"><svg width="100%" height="100%" viewBox="0 0 1320 615" version="1.1" xmlns="http://www.w3.org/2000/svg" xmlns:xlink="http://www.w3.org/1999/xlink" xml:space="preserve" xmlns:serif="http://www.serif.com/" style="fill-rule:evenodd;clip-rule:evenodd;stroke-linecap:round;stroke-linejoin:round;stroke-miterlimit:1.5;"><rect id="White" x="-0" y="0" width="1319.04" height="614.387" style="fill:none;"/><g id="Icon"><path d="M85.095,570.929c-1.919,19.897 -1.922,16.583 -2.21,27.245c-0.031,4.42 -3.576,8.012 -7.996,8.1c-14.826,0.309 -46.72,0.948 -62.584,1.266c-2.455,0.049 -4.826,-0.893 -6.577,-2.614c-1.751,-1.721 -2.735,-4.076 -2.728,-6.531c0.533,-21.479 3.792,-76.763 22.91,-131.262c9.59,-27.338 17.281,-50.196 35.563,-73.369c0,-0 -8.621,146.209 23.622,177.165Zm0,-47.244c-3.849,-18.237 -7.425,-143.027 -6.861,-143.657c-0.007,-87.638 -2.712,-207.791 -2.712,-207.791c0,-0.282 0.004,-0.564 0.011,-0.846c-0,-0 3.078,-107.434 108.228,-105.508c31.555,0.577 53.216,11.165 68.541,24.379c35.799,30.866 35.948,80.887 35.95,81.212c0,0 0.31,21.477 22.559,21.833c21.153,0.338 22.982,-20.294 23.139,-24.217l0,-55.238c0,-2.132 0.847,-4.177 2.355,-5.685c1.508,-1.508 3.553,-2.355 5.685,-2.355l65.452,0c3.524,0 6.38,2.857 6.38,6.38l0,57.333c0,0.352 -0.004,0.705 -0.014,1.057c0,-0 -3.62,104.195 -104.273,102.587c-101.753,-1.626 -101.155,-101.882 -101.155,-101.882c0.001,-0.11 0.001,-0.219 0.002,-0.329c0,-0 0.586,-12.598 -8.237,-20.204c-3.905,-3.367 -9.806,-4.865 -17.846,-5.012c-24.967,-0.458 -26.776,23.857 -26.906,27.176c-0.017,6.718 -0.205,82.606 -0.275,155.737c0.672,-0.202 0.843,124.164 0.843,124.164c-0.043,36.074 13.297,74.523 68.041,74.098c87.454,-0.679 85.677,-127.032 -1.983,-126.366c-25.1,0.191 -35.653,3.872 -46.703,18.15l-1.905,-92.555c15.539,-6.359 31.231,-6.421 52.542,-5.371c140.664,6.936 141.063,142.632 141.063,142.632c0.004,0.539 -0.002,1.077 -0.019,1.615c0,-0 -5.137,141.824 -143.027,141.767c-122.886,-1.249 -135.126,-67.534 -138.875,-83.104Z" style="fill:#fff;stroke:#fff;stroke-width:3.96px;"/><rect x="367.43" y="86.476" width="10.147" height="20.038" style="fill:#fff;stroke:#fff;stroke-width:3.96px;"/><path d="M372.584,4c0,0 -30.928,36.083 -30.928,51.548c-0,17.069 13.858,30.928 30.928,30.928c17.07,0 30.929,-13.859 30.929,-30.928c-0,-15.465 -30.929,-51.548 -30.929,-51.548Z" style="fill:#ffb400;stroke:#ffb400;stroke-width:3.96px;"/></g><g id="Text"><g id="Bends"><path d="M1263.37,607.542c-11.637,-0 -22.402,-1.787 -32.294,-5.362c-9.892,-3.574 -17.581,-8.105 -23.067,-13.591c-2.494,-2.66 -3.533,-5.694 -3.118,-9.102c0.416,-3.408 2.037,-6.193 4.863,-8.354c3.325,-2.66 6.609,-3.782 9.851,-3.367c3.241,0.416 6.026,1.87 8.354,4.364c2.826,3.159 7.356,6.11 13.591,8.853c6.234,2.743 13.175,4.115 20.823,4.115c9.642,-0 16.999,-1.58 22.069,-4.738c5.071,-3.159 7.69,-7.232 7.856,-12.22c0.166,-4.987 -2.203,-9.31 -7.107,-12.967c-4.905,-3.658 -13.841,-6.65 -26.808,-8.978c-16.792,-3.325 -28.97,-8.312 -36.534,-14.963c-7.565,-6.65 -11.347,-14.796 -11.347,-24.438c0,-8.479 2.494,-15.503 7.482,-21.073c4.987,-5.569 11.388,-9.725 19.202,-12.469c7.813,-2.743 15.96,-4.114 24.439,-4.114c10.972,-0 20.698,1.745 29.177,5.237c8.478,3.491 15.212,8.312 20.199,14.463c2.328,2.66 3.408,5.445 3.242,8.355c-0.166,2.909 -1.579,5.361 -4.239,7.356c-2.66,1.829 -5.819,2.411 -9.477,1.746c-3.657,-0.665 -6.733,-2.161 -9.227,-4.489c-4.156,-3.99 -8.645,-6.733 -13.466,-8.229c-4.821,-1.497 -10.391,-2.245 -16.708,-2.245c-7.315,0 -13.508,1.247 -18.579,3.741c-5.07,2.494 -7.606,6.151 -7.606,10.972c0,2.993 0.79,5.695 2.369,8.105c1.58,2.411 4.697,4.572 9.352,6.484c4.655,1.912 11.471,3.782 20.449,5.611c12.469,2.494 22.319,5.652 29.551,9.476c7.232,3.824 12.427,8.271 15.586,13.342c3.159,5.071 4.738,10.931 4.738,17.581c0,7.648 -2.036,14.547 -6.11,20.698c-4.073,6.152 -10.058,11.056 -17.955,14.713c-7.897,3.658 -17.747,5.487 -29.551,5.487Z" style="fill:#fff;fill-rule:nonzero;stroke:#fff;stroke-width:1px;stroke-linecap:butt;stroke-miterlimit:2;"/><path d="M1146.47,479.06l0,-54.861c0,-3.824 1.206,-6.9 3.616,-9.227c2.411,-2.328 5.445,-3.492 9.103,-3.492c3.823,0 6.899,1.164 9.227,3.492c2.327,2.327 3.491,5.403 3.491,9.227l-0,113.715c-0,13.134 -3.034,24.938 -9.102,35.412c-6.068,10.474 -14.256,18.745 -24.564,24.813c-10.308,6.068 -21.945,9.102 -34.913,9.102c-12.967,0 -24.646,-3.034 -35.037,-9.102c-10.391,-6.068 -18.62,-14.339 -24.688,-24.813c-6.069,-10.474 -9.103,-22.278 -9.103,-35.412c0,-13.134 2.785,-24.896 8.354,-35.286c5.57,-10.391 13.176,-18.621 22.818,-24.689c9.643,-6.068 20.532,-9.102 32.669,-9.102c9.809,-0 18.869,2.037 27.182,6.11c3.162,1.549 6.132,3.309 8.909,5.279l-0.216,23.622c-2.439,-2.453 -5.171,-4.605 -8.194,-6.457c-6.65,-4.074 -14.215,-6.11 -22.694,-6.11c-8.312,-0 -15.835,2.036 -22.568,6.11c-6.733,4.073 -12.053,9.601 -15.96,16.583c-3.907,6.983 -5.861,14.963 -5.861,23.94c0,8.812 1.954,16.792 5.861,23.94c3.907,7.149 9.227,12.76 15.96,16.833c6.733,4.074 14.256,6.11 22.568,6.11c8.479,0 16.044,-2.036 22.694,-6.11c6.65,-4.073 11.887,-9.684 15.71,-16.833c3.824,-7.148 5.736,-15.128 5.736,-23.94c0,-1.559 -0.058,-3.088 -0.173,-4.586l0.022,0.048l-0.847,-54.316Z" style="fill:#fff;stroke:#fff;stroke-width:1px;stroke-linecap:butt;stroke-miterlimit:2;"/><path d="M985.31,606.794c-3.657,-0 -6.692,-1.206 -9.102,-3.616c-2.411,-2.411 -3.616,-5.445 -3.616,-9.103l-0,-61.346c-0,-9.477 -1.746,-17.207 -5.237,-23.192c-3.491,-5.985 -8.188,-10.433 -14.09,-13.342c-5.902,-2.909 -12.676,-4.364 -20.324,-4.364c-6.983,-0 -13.3,1.413 -18.953,4.239c-5.652,2.827 -10.141,6.609 -13.466,11.347c-3.325,4.738 -4.988,10.183 -4.988,16.334l-15.71,0c-0,-10.474 2.535,-19.825 7.606,-28.055c5.07,-8.229 12.011,-14.755 20.823,-19.576c8.811,-4.821 18.703,-7.232 29.675,-7.232c11.472,0 21.738,2.452 30.799,7.357c9.06,4.904 16.209,12.095 21.446,21.571c5.237,9.476 7.855,21.114 7.855,34.913l0,61.346c0,3.658 -1.205,6.692 -3.616,9.103c-2.41,2.41 -5.444,3.616 -9.102,3.616Zm-102.494,-0c-3.657,-0 -6.691,-1.206 -9.102,-3.616c-2.411,-2.411 -3.616,-5.445 -3.616,-9.103l0,-111.222c0,-3.823 1.205,-6.899 3.616,-9.227c2.411,-2.327 5.445,-3.491 9.102,-3.491c3.824,0 6.9,1.164 9.227,3.491c2.328,2.328 3.491,5.404 3.491,9.227l0,111.222c0,3.658 -1.163,6.692 -3.491,9.103c-2.327,2.41 -5.403,3.616 -9.227,3.616Z" style="fill:#fff;fill-rule:nonzero;stroke:#fff;stroke-width:1px;stroke-linecap:butt;stroke-miterlimit:2;"/><path d="M730.976,549.11c1.003,4.95 2.738,9.548 5.207,13.793c4.156,7.149 9.892,12.802 17.207,16.958c7.315,4.156 15.71,6.234 25.187,6.234c5.154,0 10.432,-0.956 15.835,-2.867c5.403,-1.912 9.767,-4.115 13.092,-6.609c2.494,-1.829 5.196,-2.785 8.105,-2.868c2.91,-0.083 5.445,0.79 7.606,2.619c2.826,2.493 4.323,5.237 4.489,8.229c0.166,2.993 -1.164,5.57 -3.99,7.731c-5.653,4.489 -12.677,8.146 -21.072,10.972c-8.396,2.827 -16.418,4.24 -24.065,4.24c-13.799,-0 -26.06,-2.951 -36.783,-8.853c-10.724,-5.902 -19.119,-14.048 -25.187,-24.439c-6.069,-10.391 -9.103,-22.319 -9.103,-35.786c0,-13.632 2.868,-25.644 8.604,-36.035c5.736,-10.39 13.674,-18.537 23.815,-24.438c10.142,-5.902 21.779,-8.853 34.913,-8.853c12.968,-0 24.107,2.867 33.417,8.603c9.31,5.736 16.417,13.633 21.321,23.691c4.905,10.058 7.357,21.654 7.357,34.788c-0,3.159 -1.081,5.777 -3.242,7.855c-2.161,2.079 -4.904,3.118 -8.229,3.118l-81.361,-0c-3.941,-9.508 -0.124,-19.524 0.042,-19.951l69.828,0c-0.733,-5.553 -2.223,-10.666 -4.47,-15.336c-3.158,-6.567 -7.647,-11.762 -13.466,-15.586c-5.819,-3.824 -12.884,-5.736 -21.197,-5.736c-9.476,0 -17.581,2.078 -24.314,6.234c-6.733,4.157 -11.846,9.851 -15.337,17.083c-1.863,3.86 -3.229,7.992 -4.098,12.396c-0.388,1.5 -2.262,9.631 -0.523,21.01c0.103,0.674 0.242,1.273 0.412,1.803Z" style="fill:#fff;stroke:#fff;stroke-width:1px;stroke-linecap:butt;stroke-miterlimit:2;"/><path d="M573.93,480.103c2.604,-1.799 5.358,-3.418 8.263,-4.856c8.229,-4.073 17.248,-6.109 27.057,-6.109c12.136,-0 23.026,3.034 32.668,9.102c9.643,6.068 17.249,14.298 22.818,24.688c5.57,10.391 8.354,22.153 8.354,35.287c0,13.134 -3.034,24.938 -9.102,35.412c-6.068,10.473 -14.256,18.744 -24.563,24.813c-10.308,6.068 -22.029,9.102 -35.163,9.102c-12.967,-0 -24.605,-3.034 -34.912,-9.102c-10.308,-6.069 -18.454,-14.34 -24.439,-24.813c-5.985,-10.474 -9.061,-22.278 -9.227,-35.412l-0,-113.716c-0,-3.824 1.205,-6.899 3.616,-9.227c2.41,-2.327 5.444,-3.491 9.102,-3.491c3.824,0 6.899,1.164 9.227,3.491c2.327,2.328 3.491,5.403 3.491,9.227l0,67.332c0.241,-0.289 -0.997,42.749 -0.997,46.384c-0,8.811 1.912,16.791 5.735,23.94c3.824,7.149 9.103,12.76 15.836,16.833c6.733,4.073 14.256,6.11 22.568,6.11c8.479,-0 16.044,-2.037 22.694,-6.11c6.65,-4.073 11.928,-9.684 15.835,-16.833c3.907,-7.149 5.86,-15.129 5.86,-23.94c0,-8.978 -1.953,-16.958 -5.86,-23.94c-3.907,-6.983 -9.185,-12.511 -15.835,-16.584c-6.65,-4.073 -14.215,-6.109 -22.694,-6.109c-8.312,-0 -15.835,2.036 -22.568,6.109c-3.293,1.992 -6.237,4.331 -8.834,7.019l1.07,-24.607Z" style="fill:#fff;stroke:#fff;stroke-width:1px;stroke-linecap:butt;stroke-miterlimit:2;"/></g><g id="Body"><path d="M1090.29,361.127c-1.662,0 -3.657,-0.498 -5.985,-1.496c-7.315,-3.325 -9.31,-8.562 -5.985,-15.711l76.06,-171.82c3.325,-6.983 8.562,-8.978 15.711,-5.985c7.481,3.159 9.559,8.395 6.234,15.71l-76.309,171.572c-1.995,5.153 -5.237,7.73 -9.726,7.73Zm29.427,-65.336c-3.159,1.33 -6.11,1.454 -8.853,0.374c-2.743,-1.081 -4.946,-3.201 -6.609,-6.359l-57.107,-108.479c-1.662,-3.159 -1.87,-6.193 -0.623,-9.103c1.247,-2.909 3.449,-5.029 6.608,-6.359c3.159,-1.33 6.152,-1.454 8.978,-0.374c2.826,1.081 4.987,3.201 6.484,6.359l54.613,108.479c1.663,3.159 2.286,6.193 1.87,9.103c-0.415,2.909 -2.202,5.029 -5.361,6.359Z" style="fill:#fff;fill-rule:nonzero;stroke:#fff;stroke-width:1px;stroke-linecap:butt;stroke-miterlimit:2;"/><path d="M992.031,174.093l-0,-54.861c-0,-3.824 1.205,-6.899 3.616,-9.227c2.411,-2.328 5.445,-3.491 9.102,-3.491c3.824,-0 6.9,1.163 9.227,3.491c2.328,2.328 3.491,5.403 3.491,9.227l0,113.716c0,13.134 -3.034,24.937 -9.102,35.411c-6.068,10.474 -14.256,18.745 -24.564,24.813c-10.307,6.068 -21.945,9.102 -34.912,9.102c-12.968,0 -24.647,-3.034 -35.038,-9.102c-10.39,-6.068 -18.62,-14.339 -24.688,-24.813c-6.068,-10.474 -9.102,-22.277 -9.102,-35.411c-0,-13.134 2.784,-24.896 8.354,-35.287c5.569,-10.391 13.175,-18.62 22.818,-24.688c9.642,-6.069 20.532,-9.103 32.668,-9.103c9.809,0 18.87,2.037 27.182,6.11c3.162,1.55 6.132,3.309 8.909,5.28l-0.216,23.622c-2.439,-2.453 -5.17,-4.606 -8.194,-6.458c-6.65,-4.073 -14.214,-6.11 -22.693,-6.11c-8.313,0 -15.836,2.037 -22.569,6.11c-6.733,4.073 -12.053,9.601 -15.96,16.584c-3.907,6.982 -5.86,14.962 -5.86,23.94c-0,8.811 1.953,16.791 5.86,23.94c3.907,7.149 9.227,12.76 15.96,16.833c6.733,4.073 14.256,6.11 22.569,6.11c8.479,-0 16.043,-2.037 22.693,-6.11c6.65,-4.073 11.887,-9.684 15.711,-16.833c3.824,-7.149 5.735,-15.129 5.735,-23.94c0,-1.559 -0.057,-3.088 -0.173,-4.587l0.022,0.048l-0.846,-54.316Z" style="fill:#fff;stroke:#fff;stroke-width:1px;stroke-linecap:butt;stroke-miterlimit:2;"/><path d="M777.567,302.274c-13.466,0 -25.357,-2.962 -35.673,-8.886c-10.315,-5.924 -18.42,-14.07 -24.314,-24.438c-5.894,-10.369 -8.841,-22.287 -8.841,-35.753c-0,-13.632 2.947,-25.633 8.841,-36.002c5.894,-10.368 13.999,-18.515 24.314,-24.439c10.316,-5.924 22.165,-8.886 35.548,-8.886c13.383,0 25.218,2.962 35.503,8.886c10.286,5.924 18.391,14.071 24.315,24.439c5.924,10.369 8.886,22.37 8.886,36.002c-0,13.466 -2.91,25.395 -8.729,35.786c-5.818,10.39 -13.882,18.537 -24.189,24.439c-10.308,5.902 -22.195,8.852 -35.661,8.852Zm-0,-22.443c8.645,-0 16.287,-2.002 22.925,-6.005c6.638,-4.003 11.834,-9.489 15.586,-16.459c3.752,-6.969 5.629,-15.026 5.629,-24.17c-0,-9.144 -1.877,-17.24 -5.629,-24.289c-3.752,-7.049 -8.948,-12.576 -15.586,-16.583c-6.638,-4.007 -14.28,-6.011 -22.925,-6.011c-8.645,0 -16.29,2.004 -22.935,6.011c-6.645,4.007 -11.882,9.534 -15.711,16.583c-3.829,7.049 -5.743,15.145 -5.743,24.289c-0,9.144 1.914,17.201 5.743,24.17c3.829,6.97 9.066,12.456 15.711,16.459c6.645,4.003 14.29,6.005 22.935,6.005Z" style="fill:#fff;fill-rule:nonzero;stroke:#fff;stroke-width:1px;stroke-linecap:butt;stroke-miterlimit:2;"/><path d="M575.165,174.836c2.604,-1.8 5.358,-3.418 8.262,-4.856c8.23,-4.073 17.249,-6.11 27.057,-6.11c12.137,0 23.026,3.034 32.669,9.103c9.642,6.068 17.248,14.297 22.818,24.688c5.569,10.391 8.354,22.153 8.354,35.287c-0,13.134 -3.034,24.937 -9.102,35.411c-6.068,10.474 -14.256,18.745 -24.564,24.813c-10.308,6.068 -22.028,9.102 -35.162,9.102c-12.968,0 -24.605,-3.034 -34.913,-9.102c-10.307,-6.068 -18.454,-14.339 -24.439,-24.813c-5.985,-10.474 -9.06,-22.277 -9.227,-35.411l0,-113.716c0,-3.824 1.206,-6.899 3.616,-9.227c2.411,-2.328 5.445,-3.491 9.103,-3.491c3.823,-0 6.899,1.163 9.226,3.491c2.328,2.328 3.492,5.403 3.492,9.227l-0,67.332c0.241,-0.29 -0.998,42.749 -0.998,46.384c0,8.811 1.912,16.791 5.736,23.94c3.824,7.149 9.102,12.76 15.835,16.833c6.734,4.073 14.256,6.11 22.569,6.11c8.479,-0 16.043,-2.037 22.693,-6.11c6.65,-4.073 11.929,-9.684 15.836,-16.833c3.907,-7.149 5.86,-15.129 5.86,-23.94c0,-8.978 -1.953,-16.958 -5.86,-23.94c-3.907,-6.983 -9.186,-12.511 -15.836,-16.584c-6.65,-4.073 -14.214,-6.11 -22.693,-6.11c-8.313,0 -15.835,2.037 -22.569,6.11c-3.292,1.992 -6.237,4.331 -8.833,7.018l1.07,-24.606Z" style="fill:#fff;stroke:#fff;stroke-width:1px;stroke-linecap:butt;stroke-miterlimit:2;"/></g></g></svg>